# This file uses meters as units for non-parametric coordinates.

mtllib startRoomDoor.mtl
g default
v -329.719299 3.293838 5.145205
v -170.061798 3.293838 5.145205
v -329.719299 147.277603 5.145205
v -170.061798 147.277603 5.145205
v -329.719299 147.277603 -12.767790
v -170.061798 147.277603 -12.767790
v -329.719299 3.293838 -12.767790
v -170.061798 3.293838 -12.767790
v -326.177887 4.101283 5.145205
v -173.603195 4.101283 5.145205
v -173.603195 143.184906 5.145205
v -326.177887 143.184906 5.145205
v -326.177887 143.184906 -12.767790
v -173.603195 143.184906 -12.767790
v -173.603195 4.101283 -12.767790
v -326.177887 4.101283 -12.767790
v -249.608597 3.573864 -58.767170
v -173.791901 3.573864 -58.767170
v -249.608597 144.341705 -58.767170
v -173.791901 144.341705 -58.767170
v -249.608597 144.341705 -65.725456
v -173.791901 144.341705 -65.725456
v -249.608597 3.573864 -65.725456
v -173.791901 3.573864 -65.725456
v -243.503296 144.341705 -58.767170
v -243.503296 144.341705 -65.725456
v -243.503296 3.573864 -65.725456
v -243.503296 3.573864 -58.767170
v -325.989594 3.573864 -35.733341
v -250.172806 3.573864 -35.733341
v -325.989594 144.341705 -35.733341
v -250.172806 144.341705 -35.733341
v -325.989594 144.341705 -42.691631
v -250.172806 144.341705 -42.691631
v -325.989594 3.573864 -42.691631
v -250.172806 3.573864 -42.691631
v -256.615906 144.341705 -35.733341
v -256.615906 144.341705 -42.691631
v -256.615906 3.573864 -42.691631
v -256.615906 3.573864 -35.733341
vt 0.033173 0.003906
vt 0.033173 0.264757
vt 0.003906 0.264757
vt 0.003906 0.003906
vt 0.003906 0.760851
vt 0.003906 0.500000
vt 0.033173 0.500000
vt 0.033173 0.760851
vt 0.033173 0.996094
vt 0.003906 0.996094
vt 0.563759 0.529598
vt 0.563759 0.268747
vt 0.565078 0.274533
vt 0.565078 0.523812
vt 0.799002 0.268747
vt 0.792315 0.274533
vt 0.799002 0.529598
vt 0.792315 0.523812
vt 0.563759 0.264757
vt 0.563759 0.003906
vt 0.570446 0.009692
vt 0.570446 0.258971
vt 0.799002 0.003906
vt 0.797683 0.009692
vt 0.799002 0.264757
vt 0.797683 0.258971
vt 0.068639 0.253185
vt 0.068639 0.480422
vt 0.039372 0.480422
vt 0.039372 0.253185
vt 0.068639 0.729701
vt 0.039372 0.729701
vt 0.068639 0.956938
vt 0.039372 0.956938
vt 0.068639 0.003906
vt 0.039372 0.003906
vn 0.000000 1.000000 0.000000
vn 0.000000 1.000000 0.000000
vn 0.000000 1.000000 0.000000
vn 0.000000 1.000000 0.000000
vn 0.000000 -1.000000 0.000000
vn 0.000000 -1.000000 0.000000
vn 0.000000 -1.000000 0.000000
vn 0.000000 -1.000000 0.000000
vn 1.000000 0.000000 0.000000
vn 1.000000 0.000000 0.000000
vn 1.000000 0.000000 0.000000
vn 1.000000 0.000000 0.000000
vn -1.000000 0.000000 0.000000
vn -1.000000 0.000000 0.000000
vn -1.000000 0.000000 0.000000
vn -1.000000 0.000000 0.000000
vn 0.000000 0.000000 1.000000
vn 0.000000 0.000000 1.000000
vn 0.000000 0.000000 1.000000
vn 0.000000 0.000000 1.000000
vn 0.000000 0.000000 1.000000
vn 0.000000 0.000000 1.000000
vn 0.000000 0.000000 1.000000
vn 0.000000 0.000000 1.000000
vn 0.000000 0.000000 1.000000
vn 0.000000 0.000000 1.000000
vn 0.000000 0.000000 1.000000
vn 0.000000 0.000000 1.000000
vn 0.000000 0.000000 1.000000
vn 0.000000 0.000000 1.000000
vn 0.000000 0.000000 1.000000
vn 0.000000 0.000000 1.000000
vn -0.000000 0.000000 -1.000000
vn 0.000000 0.000000 -1.000000
vn 0.000000 0.000000 -1.000000
vn -0.000000 0.000000 -1.000000
vn 0.000000 0.000000 -1.000000
vn 0.000000 0.000000 -1.000000
vn 0.000000 0.000000 -1.000000
vn 0.000000 0.000000 -1.000000
vn 0.000000 0.000000 -1.000000
vn -0.000000 0.000000 -1.000000
vn -0.000000 0.000000 -1.000000
vn 0.000000 0.000000 -1.000000
vn -0.000000 0.000000 -1.000000
vn -0.000000 0.000000 -1.000000
vn -0.000000 0.000000 -1.000000
vn -0.000000 0.000000 -1.000000
vn -1.000000 0.000000 0.000000
vn -1.000000 0.000000 0.000000
vn -1.000000 0.000000 0.000000
vn -1.000000 0.000000 0.000000
vn 0.000000 -1.000000 0.000000
vn 0.000000 -1.000000 0.000000
vn 0.000000 -1.000000 0.000000
vn 0.000000 -1.000000 0.000000
vn 1.000000 0.000000 0.000000
vn 1.000000 0.000000 0.000000
vn 1.000000 0.000000 0.000000
vn 1.000000 0.000000 0.000000
vn 0.000000 1.000000 0.000000
vn 0.000000 1.000000 0.000000
vn 0.000000 1.000000 0.000000
vn 0.000000 1.000000 0.000000
s off
g startRoomDoor:pCube1
usemtl initialShadingGroup
f 3/1/1 4/2/2 6/3/3 5/4/4
f 7/5/5 8/6/6 2/7/7 1/8/8
f 2/7/9 8/6/10 6/3/11 4/2/12
f 7/5/13 1/8/14 3/9/15 5/10/16
f 1/11/17 2/12/18 10/13/19 9/14/20
f 2/12/21 4/15/22 11/16/23 10/13/24
f 4/15/25 3/17/26 12/18/27 11/16/28
f 3/17/29 1/11/30 9/14/31 12/18/32
f 5/19/33 6/20/34 14/21/35 13/22/36
f 6/20/37 8/23/38 15/24/39 14/21/40
f 8/23/41 7/25/42 16/26/43 15/24/44
f 7/25/45 5/19/46 13/22/47 16/26/48
f 10/27/49 11/28/50 14/29/51 15/30/52
f 11/28/53 12/31/54 13/32/55 14/29/56
f 12/31/57 9/33/58 16/34/59 13/32/60
f 9/35/61 10/27/62 15/30/63 16/36/64
g default
v -249.608597 3.573864 -0.910870
v -243.503296 3.573864 -0.910870
v -243.503296 144.341705 -0.910870
v -249.608597 144.341705 -0.910870
v -243.503296 144.341705 -7.869156
v -249.608597 144.341705 -7.869156
v -243.503296 3.573864 -7.869156
v -249.608597 3.573864 -7.869156
v -173.791901 3.573864 -0.910870
v -173.791901 3.573864 -7.869156
v -173.791901 144.341705 -7.869156
v -173.791901 144.341705 -0.910870
vt 0.852394 0.243870
vt 0.842419 0.243870
vt 0.842419 0.013881
vt 0.852394 0.013881
vt 0.852394 0.003906
vt 0.863763 0.003906
vt 0.863763 0.013881
vt 0.873738 0.013881
vt 0.873738 0.243870
vt 0.863763 0.243870
vt 0.863763 0.253845
vt 0.852394 0.253845
vt 0.200102 0.347791
vt 0.188734 0.347791
vt 0.188734 0.117802
vt 0.200102 0.117802
vt 0.200102 0.003906
vt 0.188734 0.003906
vt 0.074838 0.347791
vt 0.074838 0.117802
vt 0.200102 0.461686
vt 0.188734 0.461686
vt 0.313998 0.117802
vt 0.313998 0.347791
vn 0.000000 0.000000 1.000000
vn 0.000000 0.000000 1.000000
vn 0.000000 0.000000 1.000000
vn 0.000000 0.000000 1.000000
vn 0.000000 1.000000 0.000000
vn 0.000000 1.000000 0.000000
vn 0.000000 1.000000 0.000000
vn 0.000000 1.000000 0.000000
vn 0.000000 0.000000 -1.000000
vn 0.000000 0.000000 -1.000000
vn 0.000000 0.000000 -1.000000
vn 0.000000 0.000000 -1.000000
vn 0.000000 -1.000000 0.000000
vn 0.000000 -1.000000 0.000000
vn 0.000000 -1.000000 0.000000
vn 0.000000 -1.000000 0.000000
vn 1.000000 0.000000 0.000000
vn 1.000000 0.000000 0.000000
vn 1.000000 0.000000 0.000000
vn 1.000000 0.000000 0.000000
vn -1.000000 0.000000 0.000000
vn -1.000000 0.000000 0.000000
vn -1.000000 0.000000 0.000000
vn -1.000000 0.000000 0.000000
vn 0.000000 1.000000 0.000000
vn 0.000000 1.000000 0.000000
vn 0.000000 1.000000 0.000000
vn 0.000000 1.000000 0.000000
vn 0.000000 0.000000 -1.000000
vn 0.000000 0.000000 -1.000000
vn 0.000000 0.000000 -1.000000
vn 0.000000 0.000000 -1.000000
vn 0.000000 -1.000000 0.000000
vn 0.000000 -1.000000 0.000000
vn 0.000000 -1.000000 0.000000
vn 0.000000 -1.000000 0.000000
vn 0.000000 0.000000 1.000000
vn 0.000000 0.000000 1.000000
vn 0.000000 0.000000 1.000000
vn 0.000000 0.000000 1.000000
s off
g startRoomDoor:pCube2
usemtl initialShadingGroup
f 41/37/65 42/38/66 43/39/67 44/40/68
f 44/40/69 43/41/70 45/42/71 46/43/72
f 46/43/73 45/44/74 47/45/75 48/46/76
f 48/46/77 47/47/78 42/48/79 41/37/80
f 49/49/81 50/50/82 51/51/83 52/52/84
f 48/46/85 41/37/86 44/40/87 46/43/88
f 43/53/89 52/52/90 51/51/91 45/54/92
f 47/55/93 45/56/94 51/51/95 50/50/96
f 42/57/97 47/58/98 50/50/99 49/49/100
f 43/59/101 42/60/102 49/49/103 52/52/104
g default
v -325.989594 3.573864 -1.274717
v -256.615906 3.573864 -1.274717
v -256.615906 144.341705 -1.274717
v -325.989594 144.341705 -1.274717
v -256.615906 144.341705 -8.233007
v -325.989594 144.341705 -8.233007
v -256.615906 3.573864 -8.233007
v -325.989594 3.573864 -8.233007
v -250.172806 3.573864 -1.274717
v -250.172806 3.573864 -8.233007
v -250.172806 144.341705 -8.233007
v -250.172806 144.341705 -1.274717
vt 0.433909 0.347239
vt 0.320565 0.347239
vt 0.320565 0.117250
vt 0.433909 0.117250
vt 0.433909 0.003906
vt 0.445278 0.003906
vt 0.445278 0.117250
vt 0.558622 0.117250
vt 0.558622 0.347239
vt 0.445278 0.347239
vt 0.445278 0.460583
vt 0.433909 0.460583
vt 0.826316 0.244422
vt 0.814947 0.244422
vt 0.814947 0.014433
vt 0.826316 0.014433
vt 0.826316 0.003906
vt 0.814947 0.003906
vt 0.804420 0.244422
vt 0.804420 0.014433
vt 0.826316 0.254948
vt 0.814947 0.254948
vt 0.836842 0.014433
vt 0.836842 0.244422
vn 0.000000 0.000000 1.000000
vn 0.000000 0.000000 1.000000
vn 0.000000 0.000000 1.000000
vn 0.000000 0.000000 1.000000
vn 0.000000 1.000000 0.000000
vn 0.000000 1.000000 0.000000
vn 0.000000 1.000000 0.000000
vn 0.000000 1.000000 0.000000
vn 0.000000 0.000000 -1.000000
vn 0.000000 0.000000 -1.000000
vn 0.000000 0.000000 -1.000000
vn 0.000000 0.000000 -1.000000
vn 0.000000 -1.000000 0.000000
vn 0.000000 -1.000000 0.000000
vn 0.000000 -1.000000 0.000000
vn 0.000000 -1.000000 0.000000
vn 1.000000 0.000000 0.000000
vn 1.000000 0.000000 0.000000
vn 1.000000 0.000000 0.000000
vn 1.000000 0.000000 0.000000
vn -1.000000 0.000000 0.000000
vn -1.000000 0.000000 0.000000
vn -1.000000 0.000000 0.000000
vn -1.000000 0.000000 0.000000
vn 0.000000 1.000000 0.000000
vn 0.000000 1.000000 0.000000
vn 0.000000 1.000000 0.000000
vn 0.000000 1.000000 0.000000
vn 0.000000 0.000000 -1.000000
vn 0.000000 0.000000 -1.000000
vn 0.000000 0.000000 -1.000000
vn 0.000000 0.000000 -1.000000
vn 0.000000 -1.000000 0.000000
vn 0.000000 -1.000000 0.000000
vn 0.000000 -1.000000 0.000000
vn 0.000000 -1.000000 0.000000
vn 0.000000 0.000000 1.000000
vn 0.000000 0.000000 1.000000
vn 0.000000 0.000000 1.000000
vn 0.000000 0.000000 1.000000
s off
g startRoomDoor:pCube3
usemtl initialShadingGroup
f 53/61/105 54/62/106 55/63/107 56/64/108
f 56/64/109 55/65/110 57/66/111 58/67/112
f 58/67/113 57/68/114 59/69/115 60/70/116
f 60/70/117 59/71/118 54/72/119 53/61/120
f 61/73/121 62/74/122 63/75/123 64/76/124
f 60/70/125 53/61/126 56/64/127 58/67/128
f 55/77/129 64/76/130 63/75/131 57/78/132
f 59/79/133 57/80/134 63/75/135 62/74/136
f 54/81/137 59/82/138 62/74/139 61/73/140
f 55/83/141 54/84/142 61/73/143 64/76/144
